<?xml version="1.0" standalone="no"?>
<!DOCTYPE svg PUBLIC "-//W3C//DTD SVG 20010904//EN"
 "http://www.w3.org/TR/2001/REC-SVG-20010904/DTD/svg10.dtd">
<svg version="1.0" xmlns="http://www.w3.org/2000/svg"
 width="590.000000pt" height="590.000000pt" viewBox="0 0 590.000000 590.000000"
 preserveAspectRatio="xMidYMid meet">
<metadata>
Created by potrace 1.14, written by Peter Selinger 2001-2017
</metadata>
<g transform="translate(0.000000,590.000000) scale(0.100000,-0.100000)"
fill="#000000" stroke="none">
<path d="M0 2950 l0 -2940 2950 0 2950 0 0 2940 0 2940 -2950 0 -2950 0 0
-2940z m1106 2541 c23 -10 52 -34 65 -52 l24 -34 5 -715 c3 -393 9 -723 13
-732 5 -9 25 -27 44 -38 43 -25 80 -20 114 16 22 24 25 49 87 732 72 800 68
777 152 820 85 44 182 8 214 -80 10 -29 37 -277 79 -742 l64 -700 38 -33 c41
-36 60 -40 100 -21 56 25 55 8 55 763 0 745 -1 734 50 785 27 27 81 50 116 50
14 0 42 -7 61 -16 73 -35 69 -22 244 -804 l163 -725 0 -145 c-1 -128 -4 -155
-27 -233 -78 -255 -237 -445 -462 -552 -33 -16 -65 -30 -72 -31 -13 -2 -80
-23 -103 -31 -18 -7 -49 -13 -70 -14 -8 0 -25 -2 -37 -5 l-23 -4 -2 -1168 -3
-1167 -27 -51 c-40 -76 -70 -107 -140 -145 -56 -30 -72 -33 -143 -34 -66 0
-90 5 -136 26 -71 33 -125 87 -158 158 l-26 56 -3 1163 c-1 639 -6 1163 -10
1164 -4 0 -18 3 -32 5 -51 7 -66 10 -125 27 -389 115 -656 490 -631 886 4 69
47 283 161 795 85 385 162 719 170 741 34 91 121 126 211 85z m3762 -15 c73
-37 105 -68 143 -138 l34 -63 0 -2330 0 -2330 -27 -51 c-40 -76 -70 -107 -140
-145 -57 -30 -71 -33 -148 -34 -70 0 -94 4 -135 24 -63 32 -124 93 -156 156
l-24 50 -3 682 -3 681 -222 4 c-209 4 -226 5 -295 30 -167 60 -296 172 -370
318 -72 143 -72 141 -72 886 0 393 4 705 11 770 23 235 84 467 173 659 187
399 560 723 971 842 102 29 191 26 263 -11z"/>
</g>
</svg>
